<?xml version="1.0" standalone="no"?>
<!DOCTYPE svg PUBLIC "-//W3C//DTD SVG 20010904//EN"
 "http://www.w3.org/TR/2001/REC-SVG-20010904/DTD/svg10.dtd">
<svg version="1.0" xmlns="http://www.w3.org/2000/svg"
 width="256.000000pt" height="256.000000pt" viewBox="0 0 256.000000 256.000000"
 preserveAspectRatio="xMidYMid meet">
<metadata>
Created by potrace 1.16, written by Peter Selinger 2001-2019
</metadata>
<g transform="translate(0.000000,256.000000) scale(0.100000,-0.100000)"
fill="#000000" stroke="none">
<path d="M349 2001 c-25 -25 -29 -37 -29 -81 0 -44 4 -56 29 -81 l29 -29 902
0 902 0 29 29 c25 25 29 37 29 81 0 44 -4 56 -29 81 l-29 29 -902 0 -902 0
-29 -29z"/>
<path d="M349 1361 c-25 -25 -29 -37 -29 -81 0 -44 4 -56 29 -81 l29 -29 582
0 582 0 29 29 c25 25 29 37 29 81 0 44 -4 56 -29 81 l-29 29 -582 0 -582 0
-29 -29z"/>
<path d="M349 721 c-42 -43 -42 -119 0 -162 l30 -29 800 2 800 3 23 23 c33 33
33 131 0 164 l-23 23 -800 3 -800 2 -30 -29z"/>
</g>
</svg>
