<?xml version="1.0" standalone="no"?>
<!DOCTYPE svg PUBLIC "-//W3C//DTD SVG 20010904//EN"
 "http://www.w3.org/TR/2001/REC-SVG-20010904/DTD/svg10.dtd">
<svg version="1.0" xmlns="http://www.w3.org/2000/svg"
 width="512.000000pt" height="512.000000pt" viewBox="0 0 512.000000 512.000000"
 preserveAspectRatio="xMidYMid meet">
<metadata>
Created by potrace 1.16, written by Peter Selinger 2001-2019
</metadata>
<g transform="translate(0.000000,512.000000) scale(0.100000,-0.100000)"
fill="#000000" stroke="none">
<path d="M2235 5105 c-592 -78 -1117 -344 -1532 -779 -359 -376 -596 -854
-678 -1366 -26 -160 -32 -539 -11 -710 98 -801 568 -1510 1271 -1915 264 -152
544 -252 859 -307 174 -30 543 -37 727 -13 1102 138 1984 955 2204 2040 47
230 59 584 30 825 -144 1157 -1068 2081 -2225 2225 -152 18 -501 18 -645 0z
m1005 -1405 l0 -250 -180 0 c-282 0 -280 2 -280 -275 l0 -185 230 0 230 0 0
-27 c0 -29 -35 -375 -45 -450 l-6 -43 -205 0 -204 0 0 -740 0 -740 -305 0
-305 0 0 740 0 740 -150 0 -150 0 0 260 0 260 150 0 150 0 0 210 c0 248 12
325 70 447 51 105 130 186 232 236 117 57 176 65 491 66 l277 1 0 -250z"/>
</g>
</svg>
