<?xml version="1.0" standalone="no"?>
<!DOCTYPE svg PUBLIC "-//W3C//DTD SVG 20010904//EN"
 "http://www.w3.org/TR/2001/REC-SVG-20010904/DTD/svg10.dtd">
<svg version="1.0" xmlns="http://www.w3.org/2000/svg"
 width="512.000000pt" height="512.000000pt" viewBox="0 0 512.000000 512.000000"
 preserveAspectRatio="xMidYMid meet">
<metadata>
Created by potrace 1.16, written by Peter Selinger 2001-2019
</metadata>
<g transform="translate(0.000000,512.000000) scale(0.100000,-0.100000)"
fill="#000000" stroke="none">
<path d="M2305 5113 c-339 -32 -717 -153 -1020 -328 -595 -343 -1037 -920
-1206 -1572 -63 -246 -73 -340 -73 -653 0 -248 2 -301 21 -410 94 -540 320
-987 693 -1374 383 -398 866 -650 1430 -749 109 -19 162 -21 410 -21 313 0
407 10 653 73 881 228 1600 946 1828 1828 65 253 72 321 76 751 l5 392 -1281
0 -1281 0 0 -490 0 -490 750 0 c413 0 750 -1 750 -2 0 -2 -9 -25 -19 -53 -85
-221 -207 -409 -372 -574 -432 -429 -1067 -571 -1639 -366 -441 158 -797 514
-955 955 -65 181 -89 324 -89 530 0 253 41 441 148 672 144 314 440 610 754
754 406 187 839 202 1247 43 102 -39 243 -115 325 -174 25 -17 50 -35 57 -38
11 -7 603 750 603 771 0 6 -42 39 -92 75 -354 244 -722 385 -1153 441 -110 15
-452 20 -570 9z"/>
</g>
</svg>
