<?xml version="1.0" standalone="no"?>
<!DOCTYPE svg PUBLIC "-//W3C//DTD SVG 20010904//EN"
 "http://www.w3.org/TR/2001/REC-SVG-20010904/DTD/svg10.dtd">
<svg version="1.0" xmlns="http://www.w3.org/2000/svg"
 width="512.000000pt" height="512.000000pt" viewBox="0 0 512.000000 512.000000"
 preserveAspectRatio="xMidYMid meet">
<metadata>
Created by potrace 1.16, written by Peter Selinger 2001-2019
</metadata>
<g transform="translate(0.000000,512.000000) scale(0.100000,-0.100000)"
fill="#000000" stroke="none">
<path d="M1305 4689 c-650 -48 -1190 -541 -1291 -1181 -22 -138 -15 -415 14
-539 66 -282 190 -510 409 -752 231 -255 861 -820 1598 -1433 341 -283 386
-319 425 -339 50 -26 153 -24 205 3 60 30 876 713 1275 1066 393 348 724 668
831 803 164 207 264 410 321 652 29 127 36 404 13 543 -101 609 -581 1077
-1200 1168 -109 16 -342 14 -445 -4 -205 -36 -409 -119 -580 -236 -49 -34
-141 -111 -205 -172 l-115 -110 -115 110 c-64 61 -155 137 -204 171 -279 191
-593 275 -936 250z m380 -493 c102 -31 223 -89 299 -143 28 -20 137 -121 241
-224 105 -103 205 -194 224 -204 19 -9 60 -20 93 -22 104 -10 128 6 348 221
107 106 218 209 246 229 74 53 195 112 299 143 84 26 102 28 265 28 162 0 182
-2 263 -27 314 -97 548 -319 646 -613 106 -319 40 -662 -182 -954 -90 -117
-410 -427 -777 -750 -400 -353 -1072 -920 -1090 -920 -12 0 -371 299 -740 616
-668 574 -1051 938 -1172 1117 -409 602 -118 1364 583 1522 45 10 108 14 214
11 127 -3 164 -7 240 -30z"/>
</g>
</svg>
