<?xml version="1.0" standalone="no"?>
<!DOCTYPE svg PUBLIC "-//W3C//DTD SVG 20010904//EN"
 "http://www.w3.org/TR/2001/REC-SVG-20010904/DTD/svg10.dtd">
<svg version="1.0" xmlns="http://www.w3.org/2000/svg"
 width="48.000000pt" height="48.000000pt" viewBox="0 0 48.000000 48.000000"
 preserveAspectRatio="xMidYMid meet">
<metadata>
Created by potrace 1.16, written by Peter Selinger 2001-2019
</metadata>
<g transform="translate(0.000000,48.000000) scale(0.100000,-0.100000)"
fill="#000000" stroke="none">
<path d="M130 390 c-44 -39 -85 -80 -91 -92 -13 -23 -6 -135 12 -200 18 -67
43 -78 189 -78 146 0 171 11 189 78 18 65 25 177 12 200 -6 12 -47 53 -91 92
-61 53 -87 70 -110 70 -23 0 -49 -17 -110 -70z m200 -41 c89 -78 89 -79 69
-196 -15 -87 -26 -93 -159 -93 -133 0 -144 6 -159 93 -20 117 -20 118 69 196
44 39 85 71 90 71 5 0 46 -32 90 -71z"/>
</g>
</svg>
