<?xml version="1.0" standalone="no"?>
<!DOCTYPE svg PUBLIC "-//W3C//DTD SVG 20010904//EN"
 "http://www.w3.org/TR/2001/REC-SVG-20010904/DTD/svg10.dtd">
<svg version="1.0" xmlns="http://www.w3.org/2000/svg"
 width="512.000000pt" height="512.000000pt" viewBox="0 0 512.000000 512.000000"
 preserveAspectRatio="xMidYMid meet">

<g transform="translate(0.000000,512.000000) scale(0.100000,-0.100000)"
fill="#000000" stroke="none">
<path d="M1048 5105 c-187 -35 -361 -129 -510 -273 -167 -161 -263 -352 -288
-569 -23 -209 -48 -718 -60 -1253 -19 -846 26 -2039 85 -2277 41 -162 122
-301 255 -434 234 -235 552 -340 832 -276 134 31 950 448 1591 813 583 332
1454 881 1657 1043 145 116 258 293 301 476 78 326 -42 679 -301 886 -63 51
-485 334 -685 459 -657 412 -1199 724 -1833 1054 -349 182 -640 320 -717 341
-85 23 -234 28 -327 10z"/>
</g>
</svg>
