<?xml version="1.0" standalone="no"?>
<!DOCTYPE svg PUBLIC "-//W3C//DTD SVG 20010904//EN"
 "http://www.w3.org/TR/2001/REC-SVG-20010904/DTD/svg10.dtd">
<svg version="1.0" xmlns="http://www.w3.org/2000/svg"
 width="60.000000pt" height="60.000000pt" viewBox="0 0 60.000000 60.000000"
 preserveAspectRatio="xMidYMid meet">

<g transform="translate(0.000000,60.000000) scale(0.100000,-0.100000)"
fill="#000000" stroke="none">
<path d="M287 553 c-2 -4 -16 -45 -31 -90 l-27 -82 -96 -3 c-55 -2 -98 -7
-100 -13 -2 -6 31 -35 72 -64 41 -30 75 -57 75 -60 0 -3 -11 -42 -25 -86 -39
-126 -37 -128 65 -55 39 27 75 50 81 50 6 0 42 -22 80 -50 101 -73 103 -72 63
58 -14 46 -24 85 -22 86 2 2 35 26 73 55 39 29 70 58 70 64 0 8 -31 13 -97 15
l-97 3 -28 86 c-27 80 -44 106 -56 86z"/>
</g>
</svg>
